<svg width="1920" height="784" viewBox="0 0 1920 784" fill="none" xmlns="http://www.w3.org/2000/svg">
<path d="M66.0757 0.0104007C126.218 0.0103955 173.148 16.5718 218.535 32.5906C263.729 48.5434 306.416 63.6082 361.737 63.6082C417.058 63.6082 459.745 48.5434 504.939 32.5906C550.322 16.5718 597.256 0.0103543 657.399 0.010349C717.541 0.0103438 764.471 16.5718 809.858 32.5905C855.052 48.5434 897.739 63.6081 953.055 63.6081C1008.38 63.6081 1051.06 48.5433 1096.26 32.5905C1141.64 16.5718 1188.57 0.0103026 1248.72 0.0102973C1308.86 0.0102921 1355.79 16.5717 1401.18 32.5905C1446.37 48.5433 1489.06 63.6081 1544.38 63.6081C1599.7 63.6081 1642.39 48.5433 1687.58 32.5905C1732.97 16.5717 1779.9 0.0102509 1840.04 0.0102456C1866.47 0.0102433 1892.62 3.22868 1920 9.84402L1920 108C1891.24 108 1864.19 108 1840.04 108C1784.72 108 1767.27 108 1708.76 108C1644.3 108 1604.52 108 1544.38 108C1477.69 108 1446.94 108 1395.37 108C1343.8 108 1316.8 108 1261.49 108C1200 108 1183.14 108 1126.61 108C1070.08 108 1013.2 108 953.055 108C892.913 108 857.851 108 809.858 108C752.727 108 726.722 108 671.405 108C616.084 108 592.066 108 523.636 108C471.074 108 421.885 108 361.737 108C301.594 108 268.76 107.998 209.278 108C156.694 108 121.397 108 66.0757 108C41.9264 108 27.7687 107.999 -1.221e-10 107.999L-8.90898e-06 6.09334C27.3808 -0.522006 39.6498 0.010403 66.0757 0.0104007Z" fill="#279D2D"/>
<rect x="-12" y="108" width="1941" height="675" fill="#279D2D"/>
<g opacity="0.08" filter="url(#filter0_d_0_1)">
<path d="M4.84159 790.559C-9.66541 743.871 4.84159 633.343 97.9906 639.858C121.425 633.343 172.98 622.919 191.728 633.343L251.988 617.056C259.799 557.338 320.952 444.417 503.07 470.476C536.548 475.905 608.86 499.792 630.286 551.909C674.923 544.309 773.57 542.789 811.065 597.512C837.847 563.853 909.49 501.095 981.802 519.336C1003 465.047 1074.87 366.893 1192.71 408.587C1204.99 411.844 1236.23 423.571 1263.01 444.418C1266.21 446.908 1268.87 448.99 1271.06 450.713C1298.06 446.311 1344.52 438.333 1373.49 463.961C1396.92 429.217 1467.9 370.802 1564.31 415.102C1596.68 428.131 1660.73 476.991 1658.05 568.196V584.483C1679.25 547.567 1747.77 478.294 1852.22 496.535C1857.33 497.427 1862.05 498.249 1866.4 499.006C1863.46 497.887 1860.93 497.07 1858.92 496.535C1898.19 503.764 1951.19 513.743 1866.4 499.006C1881.34 504.694 1906.84 518.185 1929.22 542.138V790.559H4.84159Z" fill="white"/>
</g>
<g opacity="0.08" filter="url(#filter1_d_0_1)">
<path d="M-3.31516 822.138C-17.7607 775.449 -3.31516 743.343 89.4391 749.858C112.774 743.343 164.111 732.919 182.779 743.343L242.784 727.056C250.562 667.338 311.456 554.417 492.802 580.476C526.138 585.905 598.144 609.792 619.479 661.909C663.926 654.309 762.156 652.789 799.492 707.512C826.161 673.853 897.499 611.095 969.505 629.336C990.618 575.047 1062.18 476.893 1179.52 518.587C1191.74 521.844 1222.86 533.571 1249.53 554.418C1252.71 556.908 1255.36 558.99 1257.53 560.713C1284.42 556.311 1330.68 548.333 1359.53 573.961C1382.87 539.217 1453.54 480.802 1549.55 525.102C1581.77 538.131 1645.56 586.991 1642.89 678.196V694.483C1664 657.567 1732.23 588.294 1836.24 606.535C1841.32 607.427 1846.02 608.249 1850.36 609.006C1847.43 607.887 1844.91 607.07 1842.9 606.535C1882.01 613.764 1934.78 623.743 1850.36 609.006C1865.23 614.694 1890.62 628.185 1912.91 652.138V822.138H-3.31516Z" fill="white"/>
</g>
<defs>
<filter id="filter0_d_0_1" x="-73.6" y="328.943" width="2076.42" height="539.217" filterUnits="userSpaceOnUse" color-interpolation-filters="sRGB">
<feFlood flood-opacity="0" result="BackgroundImageFix"/>
<feColorMatrix in="SourceAlpha" type="matrix" values="0 0 0 0 0 0 0 0 0 0 0 0 0 0 0 0 0 0 127 0" result="hardAlpha"/>
<feOffset dy="4"/>
<feGaussianBlur stdDeviation="36.8"/>
<feComposite in2="hardAlpha" operator="out"/>
<feColorMatrix type="matrix" values="0 0 0 0 0.152941 0 0 0 0 0.615686 0 0 0 0 0.176471 0 0 0 1 0"/>
<feBlend mode="normal" in2="BackgroundImageFix" result="effect1_dropShadow_0_1"/>
<feBlend mode="normal" in="SourceGraphic" in2="effect1_dropShadow_0_1" result="shape"/>
</filter>
<filter id="filter1_d_0_1" x="-81.7362" y="438.943" width="2068.24" height="460.795" filterUnits="userSpaceOnUse" color-interpolation-filters="sRGB">
<feFlood flood-opacity="0" result="BackgroundImageFix"/>
<feColorMatrix in="SourceAlpha" type="matrix" values="0 0 0 0 0 0 0 0 0 0 0 0 0 0 0 0 0 0 127 0" result="hardAlpha"/>
<feOffset dy="4"/>
<feGaussianBlur stdDeviation="36.8"/>
<feComposite in2="hardAlpha" operator="out"/>
<feColorMatrix type="matrix" values="0 0 0 0 0.152941 0 0 0 0 0.615686 0 0 0 0 0.176471 0 0 0 1 0"/>
<feBlend mode="normal" in2="BackgroundImageFix" result="effect1_dropShadow_0_1"/>
<feBlend mode="normal" in="SourceGraphic" in2="effect1_dropShadow_0_1" result="shape"/>
</filter>
</defs>
</svg>
